<svg width="332" height="86" viewBox="0 0 332 86" fill="none" xmlns="http://www.w3.org/2000/svg">
<g clip-path="url(#clip0_202_9975)">
<mask id="mask0_202_9975" style="mask-type:luminance" maskUnits="userSpaceOnUse" x="0" y="0" width="332" height="86">
<path d="M332 0.5H0V85.5493H332V0.5Z" fill="white"/>
</mask>
<g mask="url(#mask0_202_9975)">
<path d="M203.174 26.0313C201.188 26.0295 199.224 26.4457 197.411 27.2528C195.597 28.0598 193.974 29.2395 192.648 30.7147L190.855 26.7848H184.396V58.6114H192.627V37.2646C194.611 34.6446 197.569 32.9614 200.492 32.9614C204.325 32.9614 208.822 35.3348 208.822 39.5746V58.5903H217.068V38.6098C217.068 30.4401 210.079 26.0665 203.174 26.0665" fill="white"/>
<path d="M318.357 26.0433C314.29 26.0433 309.765 27.9097 307.393 30.7197V12.9014H306.581L299.324 16.4228V58.6164H307.393V37.2766C309.306 34.6496 312.208 32.9735 315.081 32.9735C318.837 32.9735 323.927 35.3469 323.927 39.5867V58.6023H331.996V38.6077C331.996 30.431 325.113 26.0644 318.357 26.0644" fill="white"/>
<path d="M248.759 16.3889V29.9463C245.945 27.3736 242.254 25.966 238.438 26.0094C229.931 26.0094 222.793 32.4395 222.793 42.6728C222.793 52.906 229.931 59.3361 238.438 59.3361C242.253 59.3786 245.942 57.974 248.759 55.4062L249.987 58.5896H256.884V12.8745H256.016L248.759 16.3889ZM248.759 49.0395C246.432 51.2236 243.382 52.4771 240.188 52.5609C235.183 52.5609 230.863 48.8141 230.799 42.6375C230.863 36.461 235.183 32.7142 240.188 32.7142C243.382 32.798 246.432 34.0515 248.759 36.2356V49.0395Z" fill="white"/>
<path d="M170.95 26.7832L169.447 30.1567C168.064 28.8019 166.422 27.7383 164.618 27.0293C162.815 26.3203 160.887 25.9803 158.949 26.0296C150.478 26.0296 143.312 32.4597 143.312 42.6929C143.312 52.9262 150.478 59.3563 158.949 59.3563C162.765 59.4002 166.454 57.9954 169.27 55.4264L170.506 58.6097H177.403V26.7832H170.95ZM169.27 49.0597C166.945 51.2449 163.894 52.4986 160.7 52.5811C155.695 52.5811 151.381 48.8343 151.318 42.6577C151.381 36.4811 155.695 32.7344 160.7 32.7344C163.894 32.8168 166.945 34.0705 169.27 36.2558V49.0597Z" fill="white"/>
<path d="M278.772 25.8334C269.595 25.8334 262.634 31.9536 262.634 42.2503C262.634 51.8567 268.762 59.1531 279.577 59.1531C284.081 59.1531 289.023 57.9065 291.649 56.4698L288.606 51.0186C286 51.9079 283.27 52.3832 280.516 52.4272C275.016 52.4272 271.218 49.6734 270.343 44.3209H293.463C293.52 43.2644 293.583 41.9404 293.59 41.7361C293.647 32.4959 288.331 25.8193 278.765 25.8193M270.639 38.6091C271.019 36.7537 272.043 35.0915 273.531 33.9152C275.019 32.739 276.875 32.1241 278.772 32.179C282.895 32.179 285.465 34.6158 286.022 38.6091H270.639Z" fill="white"/>
<path d="M129.524 47.8282C127.583 50.4481 124.71 52.1384 121.829 52.1384C118.073 52.1384 112.983 49.765 112.983 45.5181V26.7842H104.914V46.814C104.914 54.9907 112.447 59.3573 119.203 59.3573H119.245C123.707 59.3573 127.011 58.1741 129.439 55.9274C128.853 60.1531 126.397 63.0266 122.641 64.1605C121.344 64.4956 120.013 64.6823 118.674 64.7169C116.724 64.6957 114.782 64.493 112.871 64.1112V71.5977C115.01 72.0181 117.185 72.2397 119.365 72.2598C130.251 72.2598 137.53 65.3155 137.593 54.5189V26.7842H129.524V47.8282Z" fill="white"/>
<path d="M40.7286 22.4948H35.3986C34.6946 22.4948 34.0194 22.2158 33.5216 21.7192C33.0238 21.2226 32.7441 20.549 32.7441 19.8467V3.14107C32.7441 2.79365 32.8129 2.44964 32.9464 2.12875C33.0798 1.80786 33.2754 1.5164 33.522 1.27106C33.7686 1.02573 34.0613 0.831335 34.3833 0.699023C34.7053 0.566712 35.0503 0.499083 35.3986 0.500009H40.7004C41.0486 0.499083 41.3936 0.566712 41.7156 0.699023C42.0376 0.831335 42.3303 1.02573 42.5769 1.27106C42.8234 1.5164 43.0191 1.80786 43.1526 2.12875C43.286 2.44964 43.3548 2.79365 43.3548 3.14107V19.8467C43.3548 20.549 43.0751 21.2226 42.5773 21.7192C42.0795 22.2158 41.4043 22.4948 40.7004 22.4948" fill="white"/>
<path d="M3.34391 68.6817L0.435345 64.2588C0.0498358 63.6729 -0.0871061 62.9584 0.0544859 62.2719C0.196078 61.5855 0.60466 60.983 1.19073 60.5965L16.609 50.4971C17.2017 50.1155 17.922 49.9842 18.6116 50.1321C19.3013 50.28 19.9039 50.695 20.287 51.2859L23.1956 55.7088C23.387 55.999 23.5193 56.3241 23.5846 56.6655C23.6499 57.0068 23.647 57.3576 23.5762 57.6978C23.5054 58.038 23.368 58.3609 23.1718 58.6481C22.9757 58.9352 22.7247 59.1809 22.4332 59.3711L7.01492 69.4423C6.72397 69.6333 6.39811 69.7652 6.05599 69.8304C5.71386 69.8955 5.36224 69.8927 5.02121 69.822C4.68019 69.7514 4.35647 69.6143 4.06866 69.4186C3.78084 69.2229 3.53454 68.9725 3.34391 68.6817Z" fill="white"/>
<path d="M75.7839 21.7481L72.8823 17.3181C72.6922 17.0268 72.4464 16.7757 72.1588 16.5793C71.8713 16.383 71.5477 16.2452 71.2066 16.1739C70.8655 16.1025 70.5137 16.0991 70.1713 16.1637C69.8289 16.2283 69.5027 16.3598 69.2113 16.5505L39.5044 35.9253C39.0722 36.2077 38.5668 36.3581 38.0502 36.3581C37.5335 36.3581 37.0281 36.2077 36.5959 35.9253L7.01604 16.5575C6.42788 16.1736 5.71108 16.0381 5.02289 16.1806C4.3347 16.3232 3.7313 16.7323 3.34503 17.3181L0.436464 21.741C0.244805 22.0318 0.112483 22.3575 0.0470726 22.6994C-0.0183377 23.0412 -0.0155521 23.3926 0.0552594 23.7334C0.126071 24.0742 0.263539 24.3977 0.459774 24.6854C0.65601 24.9732 0.907177 25.2195 1.19892 25.4104L31.5553 45.2782C31.9215 45.5184 32.2223 45.8456 32.4305 46.2303C32.6387 46.6151 32.748 47.0454 32.7484 47.4826L32.8049 82.8588C32.8086 83.5605 33.0906 84.2323 33.5893 84.7272C34.0881 85.2221 34.7629 85.4999 35.4663 85.4999H40.7681C41.1167 85.4989 41.4617 85.4295 41.7834 85.2956C42.1051 85.1617 42.3972 84.9658 42.643 84.7193C42.8888 84.4727 43.0836 84.1803 43.2161 83.8586C43.3487 83.537 43.4164 83.1925 43.4155 82.8447L43.359 47.5037C43.3586 47.0626 43.468 46.6283 43.6775 46.2398C43.887 45.8514 44.1899 45.5209 44.5591 45.2782L75.0214 25.4174C75.6098 25.0332 76.0213 24.4317 76.1655 23.7451C76.3098 23.0584 76.1751 22.3427 75.7909 21.7551" fill="white"/>
<path d="M55.9227 51.285L53.0424 55.6797C52.8509 55.9699 52.7187 56.295 52.6534 56.6364C52.5881 56.9777 52.5909 57.3285 52.6617 57.6687C52.7326 58.0089 52.87 58.3318 53.0662 58.619C53.2623 58.9061 53.5133 59.1518 53.8048 59.342L69.223 69.4414C69.514 69.6324 69.8398 69.7643 70.182 69.8294C70.5241 69.8946 70.8758 69.8918 71.2168 69.8211C71.5578 69.7505 71.8815 69.6134 72.1693 69.4177C72.4571 69.222 72.7034 68.9716 72.894 68.6808L75.8026 64.2579C75.9941 63.9676 76.1263 63.6425 76.1916 63.3012C76.2569 62.9599 76.2541 62.6091 76.1833 62.2689C76.1124 61.9287 75.975 61.6057 75.7788 61.3186C75.5827 61.0315 75.3317 60.7858 75.0402 60.5956L59.622 50.4962C59.0338 50.1122 58.317 49.9767 57.6288 50.1193C56.9406 50.2619 56.3372 50.671 55.9509 51.2568" fill="white"/>
</g>
</g>
<defs>
<clipPath id="clip0_202_9975">
<rect width="332" height="85" fill="white" transform="translate(0 0.5)"/>
</clipPath>
</defs>
</svg>
