<svg width="16" height="16" viewBox="0 0 16 16" fill="none" xmlns="http://www.w3.org/2000/svg">
    <path
        d="M11.4098 8.75C11.9723 8.75 12.4673 8.4425 12.7223 7.9775L15.4073 3.11C15.6848 2.615 15.3248 2 14.7548 2H3.65481L2.94981 0.5H0.497314V2H1.99731L4.69731 7.6925L3.68481 9.5225C3.13731 10.5275 3.85731 11.75 4.99731 11.75H13.9973V10.25H4.99731L5.82231 8.75H11.4098ZM4.36731 3.5H13.4798L11.4098 7.25H6.14481L4.36731 3.5ZM4.99731 12.5C4.17231 12.5 3.50481 13.175 3.50481 14C3.50481 14.825 4.17231 15.5 4.99731 15.5C5.82231 15.5 6.49731 14.825 6.49731 14C6.49731 13.175 5.82231 12.5 4.99731 12.5ZM12.4973 12.5C11.6723 12.5 11.0048 13.175 11.0048 14C11.0048 14.825 11.6723 15.5 12.4973 15.5C13.3223 15.5 13.9973 14.825 13.9973 14C13.9973 13.175 13.3223 12.5 12.4973 12.5Z"
        fill="white" />
</svg>